<?xml version="1.0" encoding="UTF-8" standalone="no"?>
<!-- Created with Inkscape (http://www.inkscape.org/) -->

<svg
   width="24"
   height="24"
   viewBox="0 0 6.3499999 6.35"
   version="1.1"
   id="svg5"
   xml:space="preserve"
   inkscape:export-filename="itchunity2.svg"
   inkscape:export-xdpi="96"
   inkscape:export-ydpi="96"
   xmlns:inkscape="http://www.inkscape.org/namespaces/inkscape"
   xmlns:sodipodi="http://sodipodi.sourceforge.net/DTD/sodipodi-0.dtd"
   xmlns="http://www.w3.org/2000/svg"
   xmlns:svg="http://www.w3.org/2000/svg"><sodipodi:namedview
     id="namedview7"
     pagecolor="#ffffff"
     bordercolor="#000000"
     borderopacity="0.25"
     inkscape:showpageshadow="2"
     inkscape:pageopacity="0.0"
     inkscape:pagecheckerboard="true"
     inkscape:deskcolor="#d1d1d1"
     inkscape:document-units="mm"
     showgrid="false" /><defs
     id="defs2" /><g
     inkscape:label="Layer 1"
     inkscape:groupmode="layer"
     id="layer1"><path
       d="M 0.81713341,0.40330259 C 0.53757656,0.56929223 -0.01320561,1.2020373 -0.0184294,1.3679741 V 1.642647 c 0,0.3481729 0.3254492,0.6541892 0.62093923,0.6541892 0.35480714,0 0.65042767,-0.2940536 0.65045357,-0.6430625 0,0.3490089 0.2854861,0.6430625 0.6403198,0.6430625 0.3548595,0 0.6311776,-0.2940536 0.6311776,-0.6430625 0,0.3490089 0.3035611,0.6430625 0.6583946,0.6430625 h 0.00643 c 0.3548599,0 0.6584205,-0.2940536 0.6584205,-0.6430625 0,0.3490089 0.2763445,0.6430625 0.6311517,0.6430625 0.3548336,0 0.6403198,-0.2940536 0.6403198,-0.6430625 0,0.3490089 0.2956728,0.6430625 0.6504541,0.6430625 0.2954898,0 0.6209384,-0.305964 0.6209384,-0.6541892 V 1.3679741 C 6.3853463,1.2020109 5.8345645,0.56923991 5.5550599,0.40330259 4.6861687,0.37279354 4.0838007,0.36752016 3.1860471,0.36764742 2.2883197,0.36772558 1.0644121,0.38175187 0.81708629,0.40330259 Z M 2.5199683,2.1328579 C 2.4860416,2.1919994 2.4440185,2.2461109 2.3951174,2.2936232 2.2611765,2.4245868 2.0775824,2.5057658 1.8751825,2.5057658 1.6804176,2.5059486 1.4933483,2.4297443 1.3541504,2.2935191 1.3056201,2.2459813 1.2687394,2.195153 1.2349672,2.1359661 L 1.2348098,2.136068 C 1.2010635,2.1953593 1.1540482,2.2461615 1.1054137,2.2937514 0.96616327,2.4298773 0.77911558,2.5060178 0.58438266,2.5058445 c -0.0243967,0 -0.0497841,-0.00674 -0.0703139,-0.013793 -0.0285256,0.2970308 -0.0405656,0.5808974 -0.0448209,0.7878684 l -5.232e-5,0.00118 c -5.1838e-4,0.1051049 -0.001037,0.1915342 -0.001555,0.3116057 0.005487,0.6232115 -0.0617195,2.0199256 0.27477706,2.3631099 0.5214496,0.121585 1.4809756,0.1769578 2.4436098,0.1772978 h 1.567e-4 C 4.1487937,6.1327698 5.1083195,6.0773998 5.6297696,5.9558132 5.9662668,5.612603 5.8990612,4.2158885 5.9045465,3.5926775 5.9039811,3.4726319 5.9035096,3.3862026 5.9029911,3.2810717 l -7.87e-5,-0.00118 c -0.00425,-0.2070219 -0.016272,-0.4908625 -0.044792,-0.7878933 -0.020527,0.00705 -0.04589,0.013793 -0.070314,0.013793 C 5.5930734,2.5059659 5.4060251,2.4298265 5.2667739,2.2937014 5.2181394,2.2461122 5.1711244,2.1953358 5.1373518,2.1360181 L 5.1371944,2.1359162 C 5.1033963,2.1951039 5.0665413,2.2459581 5.0180113,2.2934692 4.8788189,2.4296836 4.6917584,2.5058788 4.4970052,2.5056904 4.2946316,2.5056904 4.1110114,2.4244587 3.9770705,2.2935215 3.9281694,2.2460092 3.886146,2.1918976 3.8522193,2.1327561 3.8186561,2.1918325 3.7770215,2.2459416 3.7285173,2.2935215 3.5892858,2.4297213 3.4022044,2.5059042 3.2074334,2.5057164 c -0.00705,0 -0.014105,-3.149e-4 -0.021159,-5.185e-4 h -1.856e-4 c -0.00705,2.131e-4 -0.014105,5.185e-4 -0.021234,5.185e-4 C 2.9700871,2.5059112 2.7830063,2.4297379 2.6437705,2.2935478 2.5952669,2.2459674 2.5536322,2.1918581 2.5200686,2.132782 Z m 2.5097994,3.3710355 c -3.3830068,-3.7332081 -1.6915034,-1.8666041 0,0 z"
       color="#000000"
       id="path16"
       style="fill:#fa5c5c;fill-opacity:1;stroke-width:0.0261195"
       inkscape:label="path16"
       sodipodi:nodetypes="ccsscscsscscssccccccccccccccccccssccccccccccccccccccccccc" /><path
       d="m 3.4312697,4.2798816 0.5773391,-0.996939 0.2789869,0.996939 -0.2789869,0.996711 z M 3.149869,4.4417779 3.7273019,5.4385694 2.7216594,5.1809327 1.995151,4.4417779 Z M 3.7271678,3.1209122 3.149869,4.1178511 H 1.995151 L 2.7216594,3.378656 Z M 4.5513744,3.9406127 4.1991508,2.6302343 2.8844809,2.9814121 2.6898755,3.3235641 2.2949783,3.3207331 1.3327197,4.2799742 2.2949783,5.2389871 h 4.01e-5 l 0.394723,-0.00292 0.194887,0.3421522 1.3145224,0.351124 0.3522236,-1.310137 -0.2000235,-0.3393224 z"
       id="path2771"
       style="fill:#ffffff;stroke-width:0.0125758" /></g></svg>
