<?xml version="1.0" encoding="UTF-8" standalone="no"?>
<!-- Created with Inkscape (http://www.inkscape.org/) -->

<svg
   width="24"
   height="24"
   viewBox="0 0 6.3499999 6.35"
   version="1.1"
   id="svg5"
   xml:space="preserve"
   xmlns:inkscape="http://www.inkscape.org/namespaces/inkscape"
   xmlns:sodipodi="http://sodipodi.sourceforge.net/DTD/sodipodi-0.dtd"
   xmlns="http://www.w3.org/2000/svg"
   xmlns:svg="http://www.w3.org/2000/svg"><sodipodi:namedview
     id="namedview7"
     pagecolor="#ffffff"
     bordercolor="#000000"
     borderopacity="0.25"
     inkscape:showpageshadow="2"
     inkscape:pageopacity="0.0"
     inkscape:pagecheckerboard="true"
     inkscape:deskcolor="#d1d1d1"
     inkscape:document-units="mm"
     showgrid="false" /><defs
     id="defs2" /><g
     inkscape:label="Layer 1"
     inkscape:groupmode="layer"
     id="layer1"><path
       d="M 0.84838242,0.49140557 C 0.57320232,0.65479646 0.03104323,1.2776352 0.02590122,1.4409741 v 0.2703726 c 0,0.3427219 0.32035395,0.6439472 0.61121777,0.6439472 0.34925226,0 0.64024451,-0.2894499 0.64027001,-0.6329947 0,0.3435448 0.2810165,0.6329947 0.6302949,0.6329947 0.3493038,0 0.6212959,-0.2894499 0.6212959,-0.6329947 0,0.3435448 0.2988085,0.6329947 0.6480867,0.6329947 h 0.00633 c 0.3493042,0 0.6481123,-0.2894499 0.6481123,-0.6329947 0,0.3435448 0.272018,0.6329947 0.6212703,0.6329947 0.3492783,0 0.630295,-0.2894499 0.630295,-0.6329947 0,0.3435448 0.2910437,0.6329947 0.6402705,0.6329947 0.2908636,0 0.611217,-0.3011738 0.611217,-0.6439472 V 1.4409741 C 6.3294191,1.2776092 5.7872603,0.65474496 5.5121317,0.49140557 4.6568439,0.46137417 4.0639066,0.45618335 3.1802083,0.45630862 2.2965357,0.45638555 1.0917897,0.47019225 0.84833603,0.49140557 Z M 2.5245576,2.1938828 C 2.4911621,2.2520984 2.4497969,2.3053627 2.4016614,2.3521312 2.2698175,2.4810444 2.0890977,2.5609525 1.8898666,2.5609525 1.698151,2.5611324 1.5140104,2.4861212 1.3769918,2.3520287 1.3292213,2.3052352 1.292918,2.2552026 1.2596746,2.1969424 l -1.55e-4,1.003e-4 C 1.2263017,2.2554056 1.1800224,2.3054126 1.1321494,2.3522574 0.99507911,2.4862521 0.8109598,2.5612005 0.61927562,2.5610299 c -0.0240147,0 -0.0490047,-0.00663 -0.0692131,-0.013577 -0.028079,0.2923805 -0.0399305,0.5718028 -0.0441192,0.7755335 l -5.15e-5,0.00116 c -5.1026e-4,0.1034594 -0.001021,0.1885356 -0.001531,0.3067272 0.005401,0.6134545 -0.0607532,1.9883016 0.27047514,2.3261129 C 1.2881221,6.0766695 2.2326257,6.1311754 3.1801889,6.13151 h 1.542e-4 C 4.127882,6.1311719 5.0723855,6.0766688 5.5856717,5.9569858 5.9169007,5.6191489 5.8507473,4.2443014 5.8561467,3.6308474 5.8555901,3.5126813 5.855126,3.4276051 5.8546156,3.3241201 l -7.74e-5,-0.00116 c -0.00418,-0.2037822 -0.016017,-0.483179 -0.044091,-0.7755595 -0.020206,0.00694 -0.045171,0.013577 -0.069213,0.013577 C 5.54955,2.5611494 5.3654302,2.4862021 5.2283591,2.3522082 5.180486,2.305364 5.1342071,2.2553826 5.1009632,2.1969936 l -1.549e-4,-1.003e-4 c -0.033269,0.058261 -0.069547,0.108319 -0.1173172,0.1550863 -0.1370132,0.1340818 -0.321145,0.2090841 -0.5128492,0.2088987 -0.1992052,0 -0.3799506,-0.07996 -0.5117945,-0.2088472 C 3.9107118,2.3052626 3.8693464,2.2519982 3.8359508,2.1937826 3.8029131,2.2519341 3.7619303,2.3051961 3.7141855,2.3520311 3.5771338,2.4860985 3.3929814,2.5610887 3.2012597,2.5609038 c -0.00694,0 -0.013884,-3.099e-4 -0.020828,-5.103e-4 h -1.824e-4 c -0.00694,2.097e-4 -0.013884,5.103e-4 -0.020902,5.103e-4 C 2.9676293,2.5610956 2.7834775,2.4861149 2.6464216,2.352057 2.5986773,2.3052215 2.5576945,2.2519593 2.5246563,2.1938081 Z m 2.4705059,3.3182584 c -3.3300423,-3.6747608 -1.6650212,-1.8373804 0,0 z"
       color="#000000"
       id="path16"
       style="fill:#fa5c5c;fill-opacity:1;stroke-width:0.0257106"
       inkscape:label="path16"
       sodipodi:nodetypes="ccsscscsscscssccccccccccccccccccssccccccccccccccccccccccc" /><path
       d="M 3.4432059,4.0804102 4.1213964,2.9093228 4.4491175,4.0804102 4.1213964,5.2512297 Z M 3.1126492,4.2705871 3.7909499,5.4415012 2.6096387,5.1388597 1.7562215,4.2705871 Z M 3.7907923,2.7189885 3.1126492,3.8900758 H 1.7562215 l 0.8534172,-0.86832 z M 4.7589739,3.6818768 4.3452228,2.1425976 2.8009024,2.5551201 2.5723027,2.9570403 2.1084236,2.9537148 0.97807487,4.080519 2.1084236,5.2070553 h 4.72e-5 L 2.5721451,5.2036223 2.8010756,5.6055427 4.3452228,6.0180021 4.7589739,4.4790064 4.5240097,4.0804101 Z"
       id="path2771"
       style="fill:#ffffff;stroke-width:0.0147726" /></g></svg>
